<?xml version="1.0" encoding="iso-8859-1"?>
<svg fill="#000000" height="800px" width="800px" version="1.1" id="Capa_1" xmlns="http://www.w3.org/2000/svg" xmlns:xlink="http://www.w3.org/1999/xlink" 
	 viewBox="0 0 612 612" xml:space="preserve">
<defs>
    <linearGradient id="toothGradient" x1="0%" y1="0%" x2="0%" y2="100%">
        <stop offset="0%" style="stop-color:#FFFFFF;stop-opacity:1" />
        <stop offset="100%" style="stop-color:#E0E0E0;stop-opacity:1" />
    </linearGradient>
</defs>
<g>
	<path d="M354.464,18.248c-19.573,7.699-35.646,13.214-48.465,17.156c-12.817-3.944-28.892-9.459-48.463-17.156
		C98.274-44.413-2.179,59.454,122.883,250.899c-57.896,184.189-12.676,321.362,54.927,358.013
		c64.796,35.13,64.206-241.153,128.19-241.153c63.988,0,63.396,276.285,128.194,241.153c67.6-36.651,112.822-173.824,54.924-358.013
		C614.178,59.454,513.725-44.413,354.464,18.248z M170.812,63.068c-7.853,7.723-13.971,16.038-19.042,25.753
		c-5.279,10.7-7.716,22.636-9.403,34.359c-0.43,2.991-3.629,41.209-3.623,41.209c-11.79-10.559-18.082-27.613-20.565-42.835
		c-1.841-15.799-0.23-31.574,7.054-45.874c13.639-26.482,44.608-42.271,74.14-35.896C190.106,47.875,179.596,54.371,170.812,63.068z
		" fill="url(#toothGradient)"/>
	
	<!-- Add colorful math unicode symbols in the middle of the tooth -->
	<text x="306" y="306" text-anchor="middle" font-size="100" fill="#FF6B6B">¾</text>
	<text x="306" y="206" text-anchor="middle" font-size="100" fill="#45B7D1">π</text>
</g>
</svg>
